<svg width="35" height="20" viewBox="0 0 35 20" fill="none" xmlns="http://www.w3.org/2000/svg">
<path d="M27.6276 1.00769C24.4523 1.39541 21.9789 2.27781 19.5724 3.87547C18.5296 4.57069 17.333 5.70711 16.8116 6.5026C15.127 9.0562 14.8329 12.1312 16.0295 14.6447C16.3503 15.3199 16.5308 15.5471 16.7381 15.5471C16.9587 15.5471 17.0456 15.4402 17.5469 14.511C18.67 12.4655 20.0871 10.5068 21.5043 9.03615C22.8079 7.6925 23.1822 7.45853 23.5165 7.79277C23.7772 8.05348 23.6969 8.30082 23.1087 9.09631C21.491 11.2756 19.8933 14.1032 18.9374 16.463C18.6165 17.2718 18.6098 17.2852 18.7168 17.5125C18.8104 17.6997 18.9173 17.7732 19.3852 17.9737C21.6648 18.923 24.2785 18.6823 26.2907 17.332C27.6878 16.3961 29.2654 14.7249 30.101 13.3077C30.9767 11.8304 31.3644 10.5269 31.8725 7.45853C32.3003 4.84477 32.6813 3.70835 33.6038 2.33128C33.8378 1.98367 34.0116 1.64943 34.0116 1.55585C34.0116 1.39541 33.8645 1.17481 33.7576 1.17481C33.7308 1.16813 33.4233 1.12133 33.0757 1.06785C32.1733 0.927473 28.617 0.88068 27.6276 1.00769Z" fill="#2D2D2D"/>
<path d="M6.65726 8.66184C4.95932 8.82227 2.95387 9.41054 1.39631 10.1993C1.04202 10.3731 0.988541 10.4266 0.988541 10.5871C0.988541 10.7408 1.05539 10.8277 1.35621 11.0283C1.83083 11.3558 2.53273 12.1045 2.89371 12.666C3.04746 12.9067 3.43518 13.5885 3.75605 14.1768C4.51812 15.5672 4.85904 16.0686 5.46068 16.7037C6.11579 17.3855 6.67731 17.8067 7.54634 18.2545C8.44879 18.7158 9.29776 19.0032 10.013 19.0835C10.9088 19.1837 11.9717 19.0166 12.6535 18.6757C13.2151 18.3882 13.1816 18.2479 12.2792 17.1515C11.8647 16.6569 10.7684 15.487 9.83254 14.5578C8.2683 13.0003 8.1346 12.8465 8.17471 12.6861C8.29504 12.1714 8.62928 12.1847 9.5451 12.7396C11.0358 13.6353 12.2591 14.6046 13.5226 15.8747C14.3582 16.717 14.5453 16.824 14.786 16.5833C14.8863 16.4831 15.2272 15.5004 15.2272 15.3199C15.2272 15.2798 15.1202 15.0325 14.9932 14.7718C14.5253 13.8492 14.2245 12.666 14.2245 11.7703V11.2823L13.7498 10.7742C12.4864 9.41722 10.6481 8.72869 8.06107 8.6351C7.6065 8.61504 6.97813 8.62841 6.65726 8.66184Z" fill="#2D2D2D"/>
</svg>
