<svg width="22" height="21" viewBox="0 0 22 21" fill="none" xmlns="http://www.w3.org/2000/svg">
<path d="M5.53916 0.304682C3.42509 0.642181 1.71884 2.06249 1.04853 4.03124C0.748532 4.91249 0.762595 4.58437 0.743845 10.2187C0.73447 13.8562 0.743845 15.4781 0.781345 15.7875C1.05322 17.9812 2.52509 19.8 4.59697 20.4844C5.47353 20.7703 5.35634 20.7656 10.9954 20.7656C15.2892 20.7656 16.2032 20.7562 16.5595 20.6953C18.936 20.3109 20.811 18.4359 21.1954 16.0594C21.3032 15.4078 21.2985 5.54999 21.1954 4.94062C20.9892 3.77812 20.4454 2.73281 19.6063 1.89375C18.8142 1.10156 17.9329 0.623432 16.7657 0.34687C16.4423 0.267181 16.011 0.262495 11.1642 0.25312C7.05791 0.243744 5.83447 0.25312 5.53916 0.304682ZM15.2282 2.06249C16.372 2.17031 17.3282 2.62031 18.1298 3.41718C18.9407 4.22812 19.3813 5.18906 19.4845 6.37031C19.5501 7.09687 19.5173 14.1656 19.447 14.7328C19.3813 15.2531 19.2876 15.6094 19.1048 16.0687C18.5892 17.3672 17.3423 18.4641 15.9923 18.8203C15.3782 18.9797 14.9938 18.9891 10.7423 18.975L6.52353 18.9609L6.07822 18.8344C5.83447 18.7687 5.48759 18.6469 5.30947 18.5672C4.20322 18.0656 3.24228 17.0437 2.84384 15.9422C2.53447 15.0984 2.54853 15.3141 2.52978 10.9219C2.51572 8.31093 2.52509 6.72656 2.55791 6.37031C2.66103 5.27343 3.05478 4.35468 3.76259 3.56718C4.49384 2.75156 5.65166 2.17031 6.74853 2.06718C7.32978 2.01093 14.6376 2.00624 15.2282 2.06249Z" fill="#F9F9F9"/>
<path d="M16.1798 3.75967C16.1048 3.78779 15.9548 3.87217 15.8516 3.94717C15.0923 4.49561 15.1579 5.62529 15.9735 6.07061C16.1798 6.18311 16.2829 6.20654 16.5313 6.20654C16.8829 6.20186 17.0985 6.12217 17.3516 5.90186C17.8673 5.44717 17.8907 4.48623 17.3938 4.02217C17.0938 3.74092 16.5595 3.62842 16.1798 3.75967Z" fill="#F9F9F9"/>
<path d="M10.1329 5.26882C9.04071 5.47976 8.17352 5.92507 7.40009 6.67507C6.57509 7.47194 6.09696 8.32976 5.86727 9.42663C5.30477 12.0844 6.95477 14.8266 9.58446 15.586C11.9329 16.2704 14.5204 15.0891 15.6595 12.8063C15.9876 12.1548 16.2032 11.2219 16.2032 10.4532C16.2032 8.06257 14.5813 5.96257 12.2751 5.35788C11.7126 5.21257 10.6579 5.16569 10.1329 5.26882ZM11.961 7.17194C12.9173 7.47194 13.686 8.13757 14.0985 9.02351C14.3235 9.51101 14.422 9.96569 14.422 10.5376C14.422 12.0188 13.4751 13.3079 12.0173 13.8141C11.7548 13.9079 11.5485 13.936 11.1126 13.9548C10.4001 13.9876 9.98759 13.9032 9.41571 13.6173C8.71259 13.261 8.16884 12.7126 7.83602 12.0329C7.57352 11.4798 7.5079 11.1704 7.5079 10.4532C7.51259 9.86726 7.52196 9.79226 7.6579 9.40788C7.85946 8.83601 8.05634 8.52194 8.49227 8.08132C9.0079 7.56101 9.55634 7.25163 10.2501 7.10163C10.6907 7.00319 11.5345 7.03601 11.961 7.17194Z" fill="#F9F9F9"/>
</svg>
