<svg width="31" height="28" viewBox="0 0 31 28" fill="none" xmlns="http://www.w3.org/2000/svg">
<path d="M24.6316 0.7875C23.5191 1.0875 22.5753 2.04375 22.2816 3.15625C22.2003 3.48125 22.1878 4.5375 22.1878 11.4563V19.3875L21.9066 19.7062C20.7691 21.0062 20.5253 23.0875 21.3191 24.7062C22.0941 26.3 23.7128 27.3125 25.4816 27.3125C26.2503 27.3125 26.8378 27.175 27.5316 26.8438C28.7816 26.2375 29.6253 25.2125 30.0066 23.8312C30.1816 23.2188 30.1941 22.2312 30.0378 21.5938C29.8941 21.0062 29.4503 20.1062 29.1003 19.7062L28.8128 19.3875V11.4563C28.8128 4.5375 28.8003 3.48125 28.7191 3.15625C28.4253 2.025 27.4753 1.075 26.3441 0.78125C25.8878 0.6625 25.0816 0.668749 24.6316 0.7875ZM26.2128 2.875C26.3378 2.9625 26.5191 3.14375 26.6128 3.275L26.7816 3.51875L26.8003 5.10625L26.8191 6.6875H25.5003H24.1816L24.2003 5.1L24.2191 3.5125L24.4066 3.24375C24.6878 2.84375 25.0566 2.675 25.5691 2.7C25.8816 2.71875 26.0378 2.7625 26.2128 2.875Z" fill="#2D2D2D"/>
<path d="M12.719 1.04372C10.6065 1.22497 8.3815 2.01247 6.619 3.19372C5.78775 3.74997 5.2065 4.24372 4.4315 5.04372C2.56275 6.98747 1.3815 9.40622 0.96275 12.1312C0.81275 13.1062 0.8065 14.9062 0.9565 15.8687C1.62525 20.175 4.244 23.7687 8.094 25.6562C11.6628 27.4062 15.8003 27.4437 19.369 25.7437C20.019 25.4312 20.1315 25.3625 20.094 25.2687C19.5565 24.025 19.3878 22.8375 19.594 21.6812C19.7502 20.7687 20.0253 20.0812 20.5378 19.3062L20.8127 18.8875V17.2937V15.7L20.5815 15.5875C20.2128 15.4062 19.7378 15.4375 19.269 15.675C18.5565 16.0375 18.044 16 17.5878 15.5375C17.3815 15.3312 17.294 15.1625 17.1315 14.6875C16.9565 14.15 16.9377 14.0187 16.9377 13.325C16.9377 12.2187 16.9815 12.15 18.119 11.4C18.744 10.9875 18.8003 10.9625 19.7753 10.7125L20.7815 10.4562L20.8127 6.86872C20.8315 4.89372 20.869 3.24372 20.894 3.20622C21.0128 3.02497 19.2065 2.09997 17.8752 1.66247C16.2378 1.12497 14.369 0.899965 12.719 1.04372ZM8.969 3.72497C9.369 3.99372 9.50025 4.13747 9.68775 4.49997C9.8815 4.88747 10.1315 5.14997 10.394 5.24372C10.494 5.28122 10.9128 5.31247 11.3315 5.31247C12.444 5.31247 12.8128 5.44997 13.069 5.95622C13.169 6.14997 13.194 6.28747 13.1753 6.56872C13.1315 7.18747 13.044 7.26247 11.1378 8.21872C9.969 8.80622 9.20025 9.23747 8.56275 9.66872C7.6815 10.2687 7.65025 10.2937 7.42525 10.7187C7.119 11.3062 7.08775 11.5187 7.244 11.975C7.40025 12.4125 7.4065 12.675 7.2815 12.9812C7.08775 13.4375 6.7065 13.6875 6.20025 13.6875C5.92525 13.6875 5.78775 13.625 4.77525 13.025C4.16275 12.6562 3.56275 12.275 3.4565 12.1687C3.30025 12.0187 3.194 11.8062 2.994 11.2L2.7315 10.4187L2.844 10.1C3.644 7.82497 5.3815 5.61247 7.4065 4.28122C7.75025 4.04997 8.594 3.57497 8.6565 3.56872C8.694 3.56247 8.8315 3.63747 8.969 3.72497ZM10.7378 14.0875C10.8315 14.1375 10.9628 14.2375 11.0315 14.3125C11.194 14.5 11.5065 14.625 11.794 14.625C12.2503 14.625 12.5003 14.8812 12.594 15.4437C12.6503 15.825 12.8378 15.9812 13.8065 16.4625C14.9753 17.0562 15.0253 17.1062 15.0503 17.7812C15.0753 18.2625 15.0565 18.3687 14.769 19.2312L14.469 20.1562L13.8315 20.825C13.4753 21.1875 13.1878 21.5 13.1878 21.5125C13.1878 21.5312 13.0628 22.1687 12.9065 22.9375C12.5878 24.5312 12.5753 24.5562 11.9315 24.8437C11.4065 25.075 11.2753 25.0312 10.6315 24.4125C10.2003 23.9937 10.0628 23.8062 9.8065 23.3L9.50025 22.6875V21.3C9.50025 19.5812 9.5065 19.5937 8.7565 19.1937L8.244 18.925L7.63775 18.0187L7.0315 17.1125L7.01275 16.6625C6.98775 16.0437 7.094 15.8437 7.6315 15.5625C8.1815 15.275 8.28775 15.1687 8.53775 14.6687C8.844 14.0687 8.97525 14 9.86275 14C10.344 14 10.6253 14.025 10.7378 14.0875Z" fill="#2D2D2D"/>
</svg>
