<svg width="21" height="20" viewBox="0 0 21 20" fill="none" xmlns="http://www.w3.org/2000/svg">
<path d="M2.46875 0.0390625C1.58594 0.167969 0.863281 0.808594 0.589844 1.69922C0.523438 1.92188 0.519531 2.27734 0.519531 10C0.519531 17.7227 0.523438 18.0781 0.589844 18.3008C0.832031 19.0898 1.41016 19.668 2.19922 19.9102C2.42188 19.9766 2.77734 19.9805 10.5 19.9805C18.2227 19.9805 18.5781 19.9766 18.8008 19.9102C19.5898 19.668 20.168 19.0898 20.4102 18.3008C20.4766 18.0781 20.4805 17.7227 20.4805 10C20.4805 2.27734 20.4766 1.92188 20.4102 1.69922C20.168 0.917969 19.6172 0.359375 18.8203 0.0898438C18.6133 0.0234375 18.2734 0.0195312 10.6367 0.015625C6.25391 0.0117188 2.57812 0.0234375 2.46875 0.0390625ZM7.66406 6.10156C7.80078 6.14062 8.03516 6.35547 9.16406 7.47656L10.5 8.80469L11.8398 7.47656C13.2266 6.09375 13.2773 6.05469 13.5898 6.05469C14.0234 6.05469 14.4453 6.47656 14.4453 6.91016C14.4453 7.22266 14.4062 7.27344 13.0234 8.66016L11.6953 10L13.0234 11.3398C14.4062 12.7266 14.4453 12.7773 14.4453 13.0898C14.4453 13.5234 14.0234 13.9453 13.5898 13.9453C13.2773 13.9453 13.2266 13.9062 11.8398 12.5234L10.5 11.1953L9.16406 12.5234C7.77344 13.9062 7.72266 13.9453 7.41016 13.9453C6.97656 13.9453 6.55469 13.5234 6.55469 13.0898C6.55469 12.7773 6.59375 12.7266 7.97656 11.3359L9.30469 10L7.97656 8.66016C6.59375 7.27344 6.55469 7.22266 6.55469 6.91016C6.55469 6.48828 6.97266 6.0625 7.39062 6.05469C7.45312 6.05469 7.57422 6.07422 7.66406 6.10156Z" fill="#FF3A3A"/>
</svg>
