<svg width="21" height="20" viewBox="0 0 21 20" fill="none" xmlns="http://www.w3.org/2000/svg">
<path d="M2.67196 0.123438C1.85634 0.367189 1.18602 0.929689 0.820399 1.67969C0.492274 2.34063 0.511024 1.77813 0.525087 10.0984L0.539149 17.6172L0.642274 17.9219C0.946962 18.8172 1.71571 19.5766 2.60165 19.8578L2.92977 19.9609H10.5001H18.0704L18.3985 19.8578C19.2985 19.5719 20.072 18.7984 20.3579 17.8984L20.461 17.5703V10V2.42969L20.3579 2.10156C20.0766 1.21563 19.322 0.451563 18.422 0.142189L18.1173 0.0390644L10.5704 0.0296879L3.02352 0.0203133L2.67196 0.123438ZM14.5032 6.53594C14.7657 6.60156 15.0376 6.82656 15.1454 7.06563C15.2626 7.31875 15.2579 7.70313 15.1454 7.92813C15.0938 8.02188 13.8657 9.2875 12.3891 10.7547C9.86259 13.2719 9.71727 13.4125 9.50165 13.4641C9.22977 13.5297 8.99071 13.4969 8.74227 13.3516C8.63915 13.2906 7.95009 12.6344 7.21415 11.8891C5.74696 10.4125 5.73759 10.4031 5.77509 9.90156C5.79852 9.55938 5.97665 9.28281 6.27665 9.12344C6.54384 8.98281 6.92352 8.97813 7.19071 9.10938C7.3079 9.16563 7.7579 9.57813 8.3204 10.1406L9.2579 11.0781L11.5079 8.83281C13.4485 6.89688 13.786 6.58281 13.9454 6.54063C14.1985 6.475 14.2688 6.475 14.5032 6.53594Z" fill="#8BF522"/>
</svg>
