<svg width="33" height="32" viewBox="0 0 33 32" fill="none" xmlns="http://www.w3.org/2000/svg">
<path d="M15.1121 0.131128C14.9684 0.206128 14.8246 0.349878 14.7496 0.499878C14.6309 0.731128 14.6246 0.862378 14.6246 2.84363C14.6246 4.82488 14.6309 4.95613 14.7496 5.18738C14.8934 5.46863 15.2496 5.68738 15.5621 5.68738C15.8746 5.68738 16.2309 5.46863 16.3746 5.18738C16.4934 4.95613 16.4996 4.82488 16.4996 2.84363C16.4996 0.862378 16.4934 0.731128 16.3746 0.499878C16.1434 0.0436277 15.5809 -0.118872 15.1121 0.131128Z" fill="#2D2D2D"/>
<path d="M5.19966 3.35589C4.81841 3.54339 4.63091 3.95589 4.71841 4.41839C4.75591 4.62464 4.96841 4.86214 6.20591 6.10589C6.99966 6.90589 7.73716 7.59964 7.84966 7.65589C8.64966 8.03714 9.47466 7.21214 9.09341 6.41214C8.96841 6.14964 6.20591 3.39964 5.98091 3.31839C5.73091 3.22464 5.43716 3.23714 5.19966 3.35589Z" fill="#2D2D2D"/>
<path d="M25.0933 3.34991C24.8308 3.48115 22.1433 6.17491 22.0308 6.41241C21.6495 7.21241 22.4745 8.03116 23.2745 7.65616C23.387 7.59991 24.1245 6.90616 24.9183 6.10616C26.4558 4.56241 26.512 4.48116 26.412 3.99366C26.2995 3.41241 25.6183 3.08115 25.0933 3.34991Z" fill="#2D2D2D"/>
<path d="M14.4684 7.6499C12.2934 8.0124 10.4996 9.15615 9.34336 10.8999C8.46211 12.2437 8.09336 13.4624 8.09961 15.0624C8.09961 17.0687 8.75586 18.7249 10.1371 20.2124L10.5996 20.7124L11.5121 19.3374C12.0184 18.5687 12.5434 17.8562 12.7059 17.7062C13.2621 17.1937 14.0996 16.8937 14.7996 16.9562L15.1871 16.9937L16.6184 14.8562C17.4996 13.5312 18.1559 12.6187 18.3371 12.4499C18.9309 11.8999 19.8559 11.6249 20.6746 11.7499C21.4621 11.8749 22.1434 12.3062 22.6684 13.0312L22.8059 13.2187L22.7059 12.8749C22.5621 12.3624 22.0496 11.3124 21.6746 10.7687C20.8059 9.4999 19.3496 8.41865 17.8746 7.94365C16.8246 7.60615 15.4434 7.4874 14.4684 7.6499Z" fill="#2D2D2D"/>
<path d="M0.987103 13.3186C0.718353 13.4561 0.499603 13.8249 0.499603 14.1249C0.499603 14.4374 0.718353 14.7936 0.999603 14.9374C1.23085 15.0561 1.3621 15.0624 3.34335 15.0624C5.3246 15.0624 5.45585 15.0561 5.6871 14.9374C5.96835 14.7936 6.1871 14.4374 6.1871 14.1249C6.1871 13.8124 5.96835 13.4561 5.6871 13.3124C5.45585 13.1936 5.3246 13.1874 3.33085 13.1874C1.3496 13.1936 1.20585 13.1999 0.987103 13.3186Z" fill="#2D2D2D"/>
<path d="M25.4246 13.3186C25.1559 13.4561 24.9371 13.8249 24.9371 14.1249C24.9371 14.4374 25.1559 14.7936 25.4371 14.9374C25.6684 15.0561 25.7996 15.0624 27.7496 15.0624C29.6996 15.0624 29.8309 15.0561 30.0621 14.9374C30.3434 14.7936 30.5621 14.4374 30.5621 14.1249C30.5621 13.8124 30.3434 13.4561 30.0621 13.3124C29.8309 13.1936 29.6996 13.1874 27.7371 13.1874C25.7871 13.1936 25.6434 13.1999 25.4246 13.3186Z" fill="#2D2D2D"/>
<path d="M19.9058 13.6558C19.7683 13.7058 19.5933 13.8245 19.512 13.9183C19.437 14.012 18.7995 14.9683 18.0933 16.037L16.8183 17.9745L18.6995 20.8058C19.7308 22.3683 21.8245 25.5245 23.3495 27.8183L26.1183 31.9995H28.9433C31.6995 31.9995 31.7683 31.9995 31.9995 31.8683C32.2683 31.7183 32.4995 31.3495 32.4995 31.087C32.4995 30.987 32.4495 30.8058 32.387 30.6808C32.3308 30.5558 29.7245 26.7058 26.5995 22.1308C22.7808 16.5308 20.8683 13.7808 20.7558 13.7245C20.4808 13.5808 20.1745 13.5558 19.9058 13.6558Z" fill="#2D2D2D"/>
<path d="M14.2182 18.9308C13.9869 19.037 13.7807 19.3183 11.8557 22.212C10.6994 23.9495 9.74316 25.3745 9.72441 25.3745C9.71191 25.3745 9.26191 24.787 8.72441 24.0683C7.70566 22.7058 7.54941 22.562 7.12441 22.562C6.66191 22.562 6.64316 22.587 3.59316 26.6308C1.99316 28.762 0.636911 30.5995 0.586911 30.7183C0.468161 31.0058 0.474411 31.162 0.630661 31.4745C0.724411 31.6683 0.830661 31.7745 1.02441 31.8683L1.28691 31.9995L12.5682 31.987L23.8494 31.9683L19.5869 25.5308C15.9494 20.0308 15.2932 19.0745 15.0869 18.9558C14.7932 18.787 14.5494 18.7745 14.2182 18.9308Z" fill="#2D2D2D"/>
</svg>
