<svg width="21" height="24" viewBox="0 0 21 24" fill="none" xmlns="http://www.w3.org/2000/svg">
<path d="M10.1485 0.0887337C10.0454 0.140295 9.7829 0.341858 9.56259 0.538733C8.25947 1.72467 6.81572 2.52155 5.12822 2.99967C4.16728 3.27155 2.71884 3.46373 1.65009 3.46842C0.984466 3.47311 0.750091 3.57623 0.548528 3.96061C0.450091 4.14342 0.450091 4.19498 0.450091 7.42936C0.445403 10.9825 0.459466 11.2731 0.731341 12.984C1.57978 18.3184 4.47197 21.7825 9.7454 23.77C10.5282 24.0653 10.5188 24.0653 11.6392 23.62C13.1579 23.02 14.6157 22.1903 15.736 21.2856C16.3454 20.7934 17.3157 19.7903 17.7892 19.1622C19.0595 17.4747 19.861 15.4684 20.2735 12.9372C20.536 11.3153 20.5548 10.9731 20.5501 7.42936C20.5501 4.15748 20.5501 4.14811 20.447 3.95123C20.3251 3.71686 20.1563 3.57623 19.9267 3.51998C19.8329 3.49655 19.411 3.46373 18.9845 3.44967C15.9517 3.34655 13.4532 2.38561 11.4376 0.538733C10.8517 0.00435829 10.5517 -0.0987682 10.1485 0.0887337ZM14.5173 8.88717C14.822 9.21061 15.0751 9.49655 15.0845 9.5153C15.0938 9.53873 13.9032 10.6778 12.4454 12.0559C9.75009 14.5919 9.54384 14.7653 9.21103 14.7653C8.87353 14.7606 8.7329 14.6387 7.3829 13.1434C6.66572 12.3465 6.04228 11.6528 5.9954 11.6012C5.91103 11.5075 5.92509 11.4934 6.52978 10.959C6.87197 10.659 7.16259 10.4059 7.18134 10.3965C7.20009 10.3919 7.66884 10.8887 8.22665 11.5075C8.78446 12.1262 9.26728 12.6372 9.2954 12.6419C9.32822 12.6465 10.3735 11.6715 11.6251 10.4762C12.8767 9.28092 13.9126 8.30123 13.9313 8.30123C13.9454 8.29655 14.2079 8.56373 14.5173 8.88717Z" fill="#8BF522"/>
</svg>
