<svg width="27" height="28" viewBox="0 0 27 28" fill="none" xmlns="http://www.w3.org/2000/svg">
<path d="M13.1621 0.0625029C12.8746 0.150002 12.7309 0.331253 11.9559 1.525C11.5559 2.15 11.2246 2.6625 11.2184 2.675C11.2121 2.68125 10.5809 2.85625 9.8246 3.0625C9.0621 3.2625 8.3746 3.475 8.29335 3.525C8.0871 3.6625 7.8746 4.075 7.8746 4.3375C7.8746 4.66875 7.9871 4.84375 8.9121 5.99375L9.7496 7.025V7.4375C9.7496 7.6625 9.71835 8.31875 9.6871 8.9C9.6246 9.9125 9.6246 9.9625 9.7496 10.225C9.83085 10.3813 9.9746 10.55 10.1121 10.6375C10.4934 10.875 10.7559 10.825 12.2059 10.2625L13.4996 9.7625L14.7996 10.2625C16.2434 10.825 16.5059 10.8688 16.8871 10.6375C17.0246 10.55 17.1684 10.3813 17.2496 10.225C17.3746 9.9625 17.3746 9.9125 17.3121 8.9C17.2809 8.31875 17.2496 7.6625 17.2496 7.4375V7.025L18.0871 5.99375C19.0184 4.84375 19.1246 4.66875 19.1246 4.3375C19.1246 4.025 18.8684 3.60625 18.6121 3.48125C18.4996 3.43125 17.8184 3.225 17.0934 3.03125C16.3746 2.84375 15.7809 2.675 15.7809 2.66875C15.0371 1.5 14.3246 0.425003 14.1996 0.293753C13.9559 0.0375032 13.5559 -0.0499973 13.1621 0.0625029Z" fill="#2D2D2D"/>
<path d="M6.37478 6.38088C6.28728 6.41838 6.14978 6.50588 6.07478 6.58088C5.73103 6.89963 5.74978 6.24963 5.74978 17.1746V27.2934L5.89353 27.5059C5.96853 27.6246 6.15603 27.7809 6.31228 27.8621C6.58728 27.9996 6.60603 27.9996 9.54353 27.9996H12.4998V26.0184C12.4998 24.1684 12.506 24.0246 12.6248 23.7871C12.981 23.0496 14.0185 23.0371 14.3685 23.7746C14.4935 24.0246 14.4998 24.1434 14.4998 26.0184V27.9996H17.456C20.3935 27.9996 20.4123 27.9996 20.6873 27.8559C20.8435 27.7809 21.031 27.6246 21.106 27.5059L21.2498 27.2934V17.1559V7.01838L21.1123 6.81213C20.956 6.58713 20.731 6.40588 20.5248 6.34963C20.4248 6.31838 20.2998 6.43713 19.8248 7.01838L19.2498 7.73088L19.3185 8.78713C19.3873 9.94338 19.3623 10.2934 19.1685 10.8121C18.7998 11.8184 17.9998 12.4996 16.9123 12.7309C16.1873 12.8809 15.7935 12.7996 14.2498 12.1934C13.8685 12.0371 13.531 11.9434 13.4373 11.9559C13.3498 11.9746 12.8623 12.1434 12.3498 12.3371C11.2435 12.7621 10.8373 12.8434 10.2248 12.7496C9.71228 12.6746 9.03103 12.3684 8.64978 12.0371C8.16228 11.6184 7.74978 10.8434 7.66228 10.1559C7.63728 9.98088 7.64978 9.36838 7.68103 8.78713L7.74353 7.73088L7.17478 7.02463C6.85603 6.63088 6.58103 6.31213 6.56228 6.31838C6.54353 6.31838 6.46228 6.34963 6.37478 6.38088ZM12.5248 14.2746C13.0873 14.6996 13.0623 15.4621 12.4748 15.8996C12.3248 16.0121 12.1935 16.0309 11.4998 16.0496C10.7498 16.0684 10.6685 16.0621 10.4373 15.9309C9.72478 15.5309 9.73728 14.5559 10.456 14.1934C10.6873 14.0746 10.806 14.0621 11.506 14.0746C12.2623 14.0934 12.2998 14.0996 12.5248 14.2746ZM16.5373 14.1934C17.2623 14.5434 17.2685 15.5746 16.556 15.9371C16.3623 16.0434 16.1873 16.0621 15.5935 16.0621C14.781 16.0621 14.5498 15.9996 14.2935 15.6934C13.9998 15.3434 13.9935 14.7934 14.281 14.4496C14.5498 14.1309 14.7685 14.0621 15.556 14.0621C16.156 14.0621 16.3185 14.0809 16.5373 14.1934ZM12.4373 18.3871C12.906 18.7121 13.056 19.2059 12.8185 19.6684C12.6123 20.0809 12.331 20.2121 11.5935 20.2371C10.856 20.2684 10.5185 20.1934 10.2248 19.9371C9.74353 19.5121 9.83104 18.7121 10.3935 18.3746C10.5623 18.2684 10.7123 18.2496 11.4123 18.2496C12.156 18.2496 12.2498 18.2621 12.4373 18.3871ZM16.606 18.3746C17.1685 18.7121 17.256 19.5121 16.7748 19.9371C16.481 20.1934 16.1435 20.2684 15.406 20.2371C14.6748 20.2121 14.4248 20.1059 14.1998 19.7121C13.9373 19.2559 14.081 18.7184 14.5623 18.3871C14.7498 18.2621 14.8435 18.2496 15.5873 18.2496C16.2873 18.2496 16.4373 18.2684 16.606 18.3746Z" fill="#2D2D2D"/>
<path d="M0.587134 12.2123C0.480884 12.2623 0.312134 12.406 0.212134 12.5373L0.0308838 12.7685L0.0121338 19.9685L-0.000366211 27.1623L0.143384 27.4373C0.243384 27.6248 0.374634 27.756 0.562134 27.856C0.824634 27.9935 0.887134 27.9998 2.36213 27.9998H3.88713L3.83713 27.856C3.80588 27.781 3.77463 24.2123 3.76838 19.9185L3.74963 12.1248H2.26213C1.15588 12.131 0.730884 12.1498 0.587134 12.2123Z" fill="#2D2D2D"/>
<path d="M23.231 19.9184C23.2247 24.2121 23.1935 27.7809 23.1622 27.8621L23.1122 27.9996H24.6372C26.1122 27.9996 26.1747 27.9934 26.4372 27.8559C26.6247 27.7559 26.756 27.6246 26.856 27.4371L26.9997 27.1621L26.9872 19.9684L26.9685 12.7684L26.7872 12.5371C26.4935 12.1496 26.3747 12.1246 24.7247 12.1246H23.2497L23.231 19.9184Z" fill="#2D2D2D"/>
</svg>
